<svg width="20" height="20" viewBox="0 0 20 20" fill="none" xmlns="http://www.w3.org/2000/svg">
<path d="M10.8594 9.14062V6.09375H9.64062V9.14062H6.59375V10.3594H9.64062V13.4062H10.8594V10.3594H13.9062V9.14062H10.8594Z" fill="#EB140A"/>
<path fill-rule="evenodd" clip-rule="evenodd" d="M2.9375 9.75C2.9375 13.7886 6.21142 17.0625 10.25 17.0625C14.2886 17.0625 17.5625 13.7886 17.5625 9.75C17.5625 5.71142 14.2886 2.4375 10.25 2.4375C6.21142 2.4375 2.9375 5.71142 2.9375 9.75ZM4.15625 9.75C4.15625 13.1155 6.88451 15.8438 10.25 15.8438C13.6155 15.8438 16.3438 13.1155 16.3438 9.75C16.3438 6.38451 13.6155 3.65625 10.25 3.65625C6.88451 3.65625 4.15625 6.38451 4.15625 9.75Z" fill="#EB140A"/>
</svg>
