<svg width="30" height="30" viewBox="0 0 30 30" fill="none" xmlns="http://www.w3.org/2000/svg">
<path d="M11.1664 18.5827C13.0664 18.5827 14.9664 17.8596 16.4129 16.413C19.306 13.52 19.306 8.81285 16.4129 5.91991C13.52 3.0267 8.81278 3.0267 5.91984 5.91991C3.02672 8.81285 3.02672 13.52 5.91984 16.413C7.36631 17.8596 9.26634 18.5827 11.1664 18.5827ZM11.1664 5.60435C12.5917 5.60435 14.0164 6.1467 15.1014 7.23138C17.271 9.40113 17.271 12.9317 15.1014 15.1014C12.9315 17.2712 9.40134 17.2708 7.23141 15.1014C5.06184 12.9317 5.06184 9.40113 7.23141 7.23138C8.31628 6.1467 9.74147 5.60435 11.1664 5.60435ZM17.4667 18.778L18.7781 17.4665L26.25 24.9388L24.9385 26.2503L17.4667 18.778Z" fill="#EB140A"/>
<path d="M11.8594 10.6406V7.59375H10.6406V10.6406H7.59375V11.8594H10.6406V14.9062H11.8594V11.8594H14.9062V10.6406H11.8594Z" fill="#EB140A"/>
<path fill-rule="evenodd" clip-rule="evenodd" d="M3.9375 11.25C3.9375 15.2886 7.21142 18.5625 11.25 18.5625C15.2886 18.5625 18.5625 15.2886 18.5625 11.25C18.5625 7.21142 15.2886 3.9375 11.25 3.9375C7.21142 3.9375 3.9375 7.21142 3.9375 11.25ZM5.15625 11.25C5.15625 14.6155 7.88451 17.3438 11.25 17.3438C14.6155 17.3438 17.3438 14.6155 17.3438 11.25C17.3438 7.88451 14.6155 5.15625 11.25 5.15625C7.88451 5.15625 5.15625 7.88451 5.15625 11.25Z" fill="#EB140A"/>
</svg>
